<svg width="137" height="132" viewBox="0 0 137 132" fill="none" xmlns="http://www.w3.org/2000/svg">
	<g>
		<path
			d="M46.3454 120.991C63.7573 120.991 79.998 110.76 92.5104 77.5394C105.056 46.879 112.248 25.4919 123.408 25.4919C127.573 18.5143 122.468 12.2302 117.61 12.2302C74.183 11.3219 39.1447 12.2302 39.1447 31.5199C39.1447 40.3638 46.098 45.4835 53.7688 42.2217C44.0277 24.3193 72.1045 22.7091 101.583 22.9155C93.2115 34.311 85.1036 53.6089 77.9112 74.5171C68.8629 98.9102 60.2766 110.76 46.098 110.76C34.0474 110.76 25.7002 98.9102 24.298 78.4807C14.7879 80.5617 12 86.1355 12 93.0884C12 110.083 29.8738 120.991 46.3454 120.991Z"
			fill="currentColor"
		/>
	</g>
</svg>
