<svg width="290" height="290" viewBox="0 0 290 290" fill="none" xmlns="http://www.w3.org/2000/svg">
	<path
		d="M226.268 52.4044L226.273 52.4067C237.405 58.2619 245.613 66.3008 250.939 76.5218C256.284 86.7776 258.968 98.4614 258.968 111.596C258.968 124.732 256.284 136.34 250.942 146.446C245.617 156.521 237.446 164.451 226.388 170.234C221.589 172.712 219.354 178.881 222.458 183.542L257.921 236.789C261.772 242.571 257.627 250.311 250.68 250.311H196.905C193.805 250.311 190.938 248.661 189.381 245.98L79.3984 56.5686C76.0306 50.7687 80.2152 43.5 86.922 43.5H183.393C200.887 43.5 215.16 46.4896 226.268 52.4044Z"
		fill="currentColor"
	/>
	<path
		d="M100.804 246.745L27.042 118.602C23.7034 112.802 27.8898 105.562 34.5821 105.562H182.106C188.798 105.562 192.985 112.802 189.646 118.602L115.884 246.745C112.538 252.558 104.15 252.558 100.804 246.745Z"
		fill="currentColor"
	/>
</svg>
