<svg width="755" height="755" viewBox="0 0 755 755" fill="none" xmlns="http://www.w3.org/2000/svg">
	<g clip-path="url(#clip0_265_2357)">
		<path
			fill-rule="evenodd"
			clip-rule="evenodd"
			d="M560.998 550.328C634.88 619.205 754.404 268.345 754.404 377.216C754.404 585.404 585.428 754.431 377.182 754.431C169.001 754.431 -0.0390625 585.404 -0.0390625 377.216C-0.0390625 169.029 169.001 0.00170898 377.182 0.00170898C443.905 0.00170898 506.622 17.3588 560.998 47.8045C519.559 31.7345 472.275 25.4627 425.451 25.4627C277.426 25.4627 106.349 158.173 131.568 319.399C157.508 485.733 343.689 514.951 425.451 466.925C504.586 420.442 491.32 295.96 444.627 240.887C449.487 239.16 618.462 269.947 560.998 550.328Z"
			fill="currentColor"
			opacity="0.7"
		/>
		<path
			fill-rule="evenodd"
			clip-rule="evenodd"
			d="M-0.0390625 377.216C-0.0390625 302.186 21.961 232.238 59.7882 173.462C57.0957 190.149 55.7166 207.27 55.7166 224.712C55.7166 401.43 199.145 544.897 375.869 544.897C410.675 544.897 443.708 539.335 474.18 529.044C598.694 487.086 682.361 366.617 682.361 224.712C682.361 205.359 678.552 162.495 662.922 130.959C695.167 171.216 711.191 282.734 711.191 360.102C711.191 568.296 585.428 754.431 377.182 754.431C169.001 754.431 -0.0390625 585.404 -0.0390625 377.216Z"
			fill="currentColor"
			opacity="0.95"
		/>
		<path
			fill-rule="evenodd"
			clip-rule="evenodd"
			d="M560.998 550.328C336.859 695.221 38.0506 637.114 21.9609 436.446C65.1076 597.159 333.116 561.401 399.445 511.91C531.118 413.586 491.32 295.96 444.627 240.887C449.487 239.16 618.461 269.947 560.998 550.328Z"
			fill="currentColor"
			opacity="0.7"
		/>
		<path
			fill-rule="evenodd"
			clip-rule="evenodd"
			d="M-0.0390625 377.216C0.092282 377.465 46.0627 582.238 263.306 597.658C395.176 607.016 465.774 547.057 501.893 466.924C531.971 400.379 518.771 280.284 444.627 240.887C449.487 239.16 618.462 269.947 560.998 550.328C561.195 550.242 561.393 550.151 561.59 550.065C688.863 464.494 745.931 305.318 663.644 132.574L662.922 131.004C719.925 197.097 754.404 283.16 754.404 377.216C754.404 585.403 585.428 754.431 377.182 754.431C301.133 754.431 230.273 731.846 170.971 693.027C78.3074 632.352 13.883 532.005 1.99636 416.199C0.682915 403.386 -0.0390625 390.377 -0.0390625 377.216Z"
			fill="currentColor"
			opacity="0.5"
		/>
	</g>
	<defs>
		<clipPath id="clip0_265_2357">
			<rect width="755" height="755" fill="white" />
		</clipPath>
	</defs>
</svg>
